<?xml version="1.0" encoding="UTF-8" standalone="no"?><!-- Generator: Gravit.io --><svg xmlns="http://www.w3.org/2000/svg" xmlns:xlink="http://www.w3.org/1999/xlink" style="isolation:isolate" viewBox="0 0 430.072 430.072" width="430.072pt" height="430.072pt"><defs><clipPath id="_clipPath_AoFtGwAxzvY1abMxQtj7q0TrPjlp1tcn"><rect width="430.072" height="430.072"/></clipPath></defs><g clip-path="url(#_clipPath_AoFtGwAxzvY1abMxQtj7q0TrPjlp1tcn)"><g><g><path d=" M 267.603 44.528 C 265.123 39.737 260.758 36.356 255.317 35.005 L 116.843 0.639 C 108.05 -1.547 103.777 2.433 102.35 4.245 C 100.91 6.066 98.01 11.181 102.203 19.317 L 122.031 57.826 C 86.951 79.437 -24.49 159.158 20.925 275.545 C 21.937 278.144 24.43 279.859 27.224 279.887 C 27.244 279.887 27.263 279.887 27.284 279.887 C 30.051 279.887 32.544 278.214 33.595 275.658 C 33.974 274.736 72.055 184.817 172.815 156.464 L 192.616 194.914 C 196.796 203.045 202.629 203.647 204.955 203.509 C 207.269 203.389 213.002 202.193 216.296 193.721 L 268.283 60.139 C 270.303 54.959 270.057 49.267 267.603 44.528 Z  M 255.561 55.182 L 204.102 187.404 L 182.436 145.319 C 180.982 142.491 177.789 141.046 174.683 141.829 C 88.616 163.739 44.836 226.019 28.563 255.188 C 0.349 150.44 111.003 79.897 134.456 66.301 C 137.603 64.477 138.764 60.505 137.096 57.269 L 114.943 14.232 L 252.021 48.253 C 253.62 48.651 254.813 49.533 255.474 50.803 C 256.134 52.078 256.161 53.631 255.561 55.182 Z " fill="rgb(0,0,0)"/></g></g><g><g><path d=" M 409.15 154.531 C 408.138 151.93 405.638 150.21 402.844 150.186 C 402.83 150.186 402.812 150.186 402.791 150.186 C 400.025 150.186 397.524 151.859 396.471 154.425 C 396.099 155.345 358.266 245.204 257.258 273.605 L 237.457 235.162 C 233.271 227.032 227.412 226.465 225.118 226.564 C 222.804 226.685 217.071 227.878 213.777 236.347 L 161.79 369.931 C 159.769 375.116 160.017 380.809 162.476 385.55 C 164.956 390.337 169.315 393.716 174.755 395.065 L 313.236 429.439 C 315.037 429.886 316.649 430.072 318.083 430.072 C 323.648 430.072 326.589 427.263 327.722 425.824 C 329.162 424.003 332.062 418.888 327.869 410.751 L 308.043 372.243 C 343.123 350.628 454.556 270.901 409.15 154.531 Z  M 295.62 363.766 C 292.473 365.589 291.312 369.562 292.98 372.796 L 315.139 415.842 L 178.046 381.813 C 176.452 381.419 175.259 380.538 174.599 379.268 C 173.938 377.993 173.906 376.437 174.512 374.884 L 225.965 242.663 L 247.641 284.743 C 249.095 287.571 252.288 289.023 255.394 288.233 C 341.459 266.33 385.241 204.052 401.514 174.885 C 429.719 279.616 319.073 350.168 295.62 363.766 Z " fill="rgb(0,0,0)"/></g></g><text transform="matrix(1,0,0,1,7,311.654)" style="font-family:'Open Sans';font-weight:400;font-size:300px;font-style:normal;fill:#ca1919;stroke:none;">TM</text></g></svg>